<svg width="7" height="193" viewBox="0 0 7 193" fill="none" xmlns="http://www.w3.org/2000/svg">
<path d="M4.80108 5.30363L6.9754 0.748657L1.71577 0.748657L3.89008 5.30363H4.80108ZM3.89008 18.3612L1.71577 22.9162H6.9754L4.80108 18.3612H3.89008ZM3.89008 4.84813L3.89008 18.8167H4.80108L4.80108 4.84813H3.89008Z" fill="white"/>
<path d="M3.89007 174.445L6.06439 169.89H0.804755L2.97907 174.445H3.89007ZM2.97907 187.503L0.804755 192.058H6.06439L3.89007 187.503H2.97907ZM2.97907 173.989L2.97907 187.958H3.89007L3.89007 173.989H2.97907Z" fill="white"/>
<path d="M4.80254 27.4738L7.00452 22.9321L1.74499 22.9001L3.89156 27.4683L4.80254 27.4738ZM3.89433 27.0128L2.95693 181.123L3.86791 181.128L4.80531 27.0183L3.89433 27.0128Z" fill="white"/>
</svg>
